#!OML:ASF I:\Actors\actors\Patient Classification 2\Patient 1\Session 1\actor1.ASF
:FULLY-SPECIFIED
:DEGREES
823
root -0.385257 18.209 5.6673 -9.72831 1.61616 -1.71471
lowerback 8.18469 0.423146 -0.713609
upperback 4.57665 0.561512 5.6841
thorax 0.0977535 0.205816 6.28407
lowerneck -6.1174 -2.19108 -1.22318
upperneck 15.611 -2.13774 -4.48587
head 5.68321 -1.42565 -1.34765
rclavicle 9.93923e-015 -3.49861e-014
rhumerus 30.1564 27.2892 -53.5825
rradius 68.7867
rwrist 6.00088
rhand -18.2401 -40.3665
rfingers 7.12502
rthumb 8.03864 -70.1936
lclavicle 9.93923e-015 -3.49861e-014
lhumerus 24.4912 -24.1657 78.3793
lradius 63.9771
lwrist 12.0317
lhand -20.0728 -22.1692
lfingers 7.12502
lthumb 6.26953 7.71799
rfemur 12.4211 -2.64332 13.9746
rtibia 14.5759
rfoot -20.7585 -5.96028
rtoes -11.7269
lfemur -2.11262 4.46109 -15.5541
ltibia 35.8905
lfoot -24.4437 6.71467
ltoes -55.4817
824
root -0.379169 18.2108 5.67164 -9.67298 1.59064 -1.74841
lowerback 8.2426 0.373509 -0.553822
upperback 4.54681 0.509032 5.69684
thorax 0.0415248 0.183348 6.20975
lowerneck -6.28224 -2.16719 -1.08349
upperneck 15.7462 -2.08275 -4.68251
head 5.75068 -1.40888 -1.43303
rclavicle -7.25564e-015 -6.36111e-015
rhumerus 29.5095 26.9323 -54.6394
rradius 68.7831
rwrist 5.68209
rhand -18.3531 -41.1679
rfingers 7.12502
rthumb 7.92959 -70.9992
lclavicle -7.25564e-015 -6.36111e-015
lhumerus 24.7984 -24.375 77.6958
lradius 63.9025
lwrist 11.6312
lhand -19.9322 -22.308
lfingers 7.12502
lthumb 6.40522 7.57518
rfemur 12.433 -2.61872 14.0066
rtibia 14.4603
rfoot -20.7545 -5.9906
rtoes -11.6138
lfemur -2.14426 4.49476 -15.5324
ltibia 35.8669
lfoot -24.409 6.7431
ltoes -55.3992
825
root -0.373157 18.2125 5.6769 -9.60649 1.57431 -1.69764
lowerback 8.28125 0.336863 -0.525143
upperback 4.52358 0.464082 5.70154
thorax 0.00122461 0.162086 6.20197
lowerneck -6.33143 -2.15268 -0.851011
upperneck 15.7452 -2.04512 -4.97723
head 5.75269 -1.3989 -1.56219
rclavicle 7.25564e-015 -1.11319e-014
rhumerus 28.7581 26.5462 -55.7896
rradius 68.8394
rwrist 5.2621
rhand -18.6206 -41.7433
rfingers 7.12502
rthumb 7.67137 -71.5841
lclavicle 7.25564e-015 -1.11319e-014
lhumerus 25.1687 -24.6208 76.9724
lradius 63.7603
lwrist 11.2167
lhand -19.8501 -22.4228
lfingers 7.12502
lthumb 6.48456 7.4579
rfemur 12.4276 -2.64747 13.9212
rtibia 14.3495
rfoot -20.7093 -5.97417
rtoes -11.411
lfemur -2.18339 4.49758 -15.6176
ltibia 35.8437
lfoot -24.4115 6.8052
ltoes -55.3347
826
root -0.366421 18.2149 5.68276 -9.54122 1.54124 -1.62166
lowerback 8.32473 0.305987 -0.475993
upperback 4.4929 0.428676 5.69644
thorax -0.0505237 0.146364 6.17115
lowerneck -6.32957 -2.11221 -0.740434
upperneck 15.7157 -1.97789 -5.15271
head 5.74104 -1.37196 -1.63069
rclavicle 5.56597e-015 -3.18055e-014
rhumerus 27.9492 26.2164 -56.999
rradius 68.8233
rwrist 4.73493
rhand -19.3184 -41.8637
rfingers 7.12502
rthumb 6.9978 -71.7281
lclavicle 5.56597e-015 -3.18055e-014
lhumerus 25.5115 -24.8703 76.2803
lradius 63.6935
lwrist 10.9262
lhand -19.7248 -22.4363
lfingers 7.12502
lthumb 6.60548 7.44069
rfemur 12.4192 -2.66847 13.8015
rtibia 14.2379
rfoot -20.6095 -5.96407
rtoes -11.4715
lfemur -2.22019 4.48108 -15.7417
ltibia 35.8216
lfoot -24.4539 6.87864
ltoes -55.2592
827
root -0.358668 18.217 5.68892 -9.48687 1.47586 -1.61267
lowerback 8.65514 0.288673 -0.154645
upperback 4.26305 0.448409 5.62908
thorax -0.472514 0.171538 5.91261
lowerneck -6.17365 -2.08646 -0.745981
upperneck 15.8006 -1.93931 -5.17267
head 5.74142 -1.35452 -1.63253
rclavicle -1.17283e-014 -5.56597e-014
rhumerus 26.8925 25.9539 -58.2405
rradius 68.8057
rwrist 4.30191
rhand -19.7081 -41.7645
rfingers 7.12502
rthumb 6.62159 -71.641
lclavicle -1.17283e-014 -5.56597e-014
lhumerus 25.5486 -25.3113 75.669
lradius 63.6951
lwrist 10.6929
lhand -19.5617 -22.4748
lfingers 7.12502
lthumb 6.76291 7.39719
rfemur 12.4195 -2.6091 13.7786
rtibia 14.1328
rfoot -20.5347 -6.00181
rtoes -11.6666
lfemur -2.24189 4.49361 -15.787
ltibia 35.7959
lfoot -24.4624 6.96831
ltoes -55.2607
828
root -0.350892 18.218 5.69434 -9.45539 1.40212 -1.6203
lowerback 8.58902 0.207226 -0.0166852
upperback 4.33027 0.344934 5.65917
thorax -0.354866 0.118372 5.87465
lowerneck -6.23894 -2.00675 -0.732269
upperneck 15.7158 -1.81467 -5.30125
head 5.72776 -1.30185 -1.66674
rclavicle -7.55382e-015 -1.43125e-014
rhumerus 26.491 25.7305 -59.0356
rradius 68.8409
rwrist 3.87016
rhand -19.8494 -41.8292
rfingers 7.12502
rthumb 6.48517 -71.7099
lclavicle -7.55382e-015 -1.43125e-014
lhumerus 25.9582 -25.3936 74.909
lradius 63.6048
lwrist 10.3923
lhand -19.5222 -22.5585
lfingers 7.12502
lthumb 6.80109 7.31229
rfemur 12.4396 -2.5745 13.7615
rtibia 14.0342
rfoot -20.454 -5.99086
rtoes -11.7167
lfemur -2.23041 4.52804 -15.8063
ltibia 35.7654
lfoot -24.4564 7.02254
ltoes -55.2959
829
root -0.344389 18.2192 5.69828 -9.42579 1.32616 -1.62224
lowerback 8.51857 0.133821 0.0714505
upperback 4.4159 0.24711 5.69327
thorax -0.21664 0.0669005 5.86886
lowerneck -6.33641 -1.95161 -0.658064
upperneck 15.6316 -1.72373 -5.4737
head 5.71786 -1.26563 -1.72738
rclavicle 3.97569e-015 5.40694e-014
rhumerus 26.0529 25.4958 -59.8325
rradius 68.8984
rwrist 3.48611
rhand -20.1283 -42.0476
rfingers 7.12502
rthumb 6.21593 -71.9364
lclavicle 3.97569e-015 5.40694e-014
lhumerus 26.3767 -25.4798 74.1173
lradius 63.519
lwrist 10.174
lhand -19.5514 -22.659
lfingers 7.12502
lthumb 6.77285 7.21271
rfemur 12.4501 -2.58154 13.7289
rtibia 13.9421
rfoot -20.3666 -5.94503
rtoes -11.545
lfemur -2.217 4.57323 -15.8244
ltibia 35.7272
lfoot -24.4426 7.03205
ltoes -55.2705
830
root -0.33848 18.2212 5.70193 -9.35786 1.25594 -1.62444
lowerback 8.57774 0.106454 0.213843
upperback 4.38665 0.224495 5.699
thorax -0.277177 0.0587171 5.79542
lowerneck -6.36749 -1.96295 -0.545096
upperneck 15.6107 -1.72468 -5.66251
head 5.71323 -1.27323 -1.80564
rclavicle -5.76476e-015 6.36111e-014
rhumerus 26.7512 25.774 -59.3044
rradius 68.3111
rwrist 1.98759
rhand -20.5347 -42.9298
rfingers 7.12502
rthumb 5.8236 -72.8298
lclavicle -5.76476e-015 6.36111e-014
lhumerus 26.6783 -25.7267 73.4345
lradius 63.4676
lwrist 9.99402
lhand -19.4988 -22.8433
lfingers 7.12502
lthumb 6.82363 7.02671
rfemur 12.4214 -2.56671 13.7125
rtibia 13.8491
rfoot -20.2774 -5.94471
rtoes -11.4599
lfemur -2.25094 4.6265 -15.8441
ltibia 35.6837
lfoot -24.3959 7.06136
ltoes -55.2899
831
root -0.33237 18.2239 5.70567 -9.28781 1.21887 -1.62252
lowerback 8.68146 0.0802835 0.374264
upperback 4.32664 0.208304 5.69589
thorax -0.39495 0.055112 5.70203
lowerneck -6.4189 -1.98084 -0.4542
upperneck 15.6899 -1.73161 -5.81977
head 5.74391 -1.28482 -1.8726
rclavicle -2.98177e-016 -2.22639e-014
rhumerus 26.5 25.6908 -59.6184
rradius 68.1546
rwrist 1.19111
rhand -20.6087 -43.4239
rfingers 7.12502
rthumb 5.75212 -73.3258
lclavicle -2.98177e-016 -2.22639e-014
lhumerus 26.9769 -26.0088 72.7931
lradius 63.415
lwrist 9.70004
lhand -19.4103 -23.0199
lfingers 7.12502
lthumb 6.90913 6.84731
rfemur 12.4036 -2.56995 13.6886
rtibia 13.7491
rfoot -20.1548 -5.9719
rtoes -11.671
lfemur -2.29266 4.63212 -15.8786
ltibia 35.6482
lfoot -24.3525 7.12286
ltoes -55.3203
832
root -0.327021 18.2265 5.70948 -9.23193 1.16942 -1.64923
lowerback 8.82347 0.0407754 0.570921
upperback 4.25321 0.179699 5.68527
thorax -0.546604 0.0460601 5.5815
lowerneck -6.49254 -1.9783 -0.424248
upperneck 15.8289 -1.72014 -5.84565
head 5.79986 -1.28301 -1.8882
rclavicle -4.96962e-016 -7.95139e-015
rhumerus 25.8424 25.4861 -60.3446
rradius 68.1805
rwrist 0.587291
rhand -20.7489 -43.6379
rfingers 7.12502
rthumb 5.61679 -73.5435
lclavicle -4.96962e-016 -7.95139e-015
lhumerus 27.2214 -26.28 72.1308
lradius 63.3764
lwrist 9.31428
lhand -19.3243 -23.1185
lfingers 7.12502
lthumb 6.99209 6.74606
rfemur 12.3954 -2.54469 13.7112
rtibia 13.6451
rfoot -20.0972 -6.01312
rtoes -11.7787
lfemur -2.32136 4.6022 -15.8803
ltibia 35.6273
lfoot -24.3504 7.18151
ltoes -55.295
833
root -0.322664 18.229 5.71383 -9.16005 1.07339 -1.69138
lowerback 9.2366 0.0339554 0.909214
upperback 3.97538 0.228279 5.60459
thorax -1.06689 0.0831284 5.30072
lowerneck -6.47242 -2.01574 -0.48204
upperneck 16.1185 -1.77959 -5.66822
head 5.88809 -1.30735 -1.83096
rclavicle -8.94531e-016 3.18055e-015
rhumerus 24.8179 25.2701 -61.2743
rradius 68.2154
rwrist -0.0815206
rhand -20.8847 -43.7696
rfingers 7.12502
rthumb 5.48568 -73.6786
lclavicle -8.94531e-016 3.18055e-015
lhumerus 27.1977 -26.7698 71.5639
lradius 63.3684
lwrist 9.00337
lhand -19.2589 -23.174
lfingers 7.12502
lthumb 7.05528 6.68839
rfemur 12.3617 -2.47126 13.7683
rtibia 13.5342
rfoot -20.0896 -6.04274
rtoes -11.6795
lfemur -2.36993 4.6205 -15.8544
ltibia 35.6179
lfoot -24.3605 7.26328
ltoes -55.3152
834
root -0.318037 18.2309 5.71954 -9.09887 0.979727 -1.70699
lowerback 9.38204 0.0220137 1.09321
upperback 3.86709 0.239531 5.57396
thorax -1.26 0.0932307 5.16325
lowerneck -6.57025 -2.03397 -0.504892
upperneck 16.2912 -1.80343 -5.59736
head 5.95979 -1.31949 -1.81059
rclavicle 8.94531e-015 -6.04305e-014
rhumerus 24.0722 25.0084 -62.0108
rradius 68.2664
rwrist -0.784251
rhand -20.9109 -43.9184
rfingers 7.12502
rthumb 5.46039 -73.828
lclavicle 8.94531e-015 -6.04305e-014
lhumerus 27.3958 -27.1167 70.9685
lradius 63.3497
lwrist 8.80495
lhand -19.1392 -23.217
lfingers 7.12502
lthumb 7.17076 6.64152
rfemur 12.3499 -2.41127 13.784
rtibia 13.4231
rfoot -20.047 -6.04722
rtoes -11.6146
lfemur -2.40144 4.64593 -15.8577
ltibia 35.6165
lfoot -24.3628 7.36173
ltoes -55.3036
835
root -0.312887 18.2327 5.72539 -9.03671 0.917415 -1.71176
lowerback 9.42451 -0.0067086 1.22403
upperback 3.83576 0.216075 5.57021
thorax -1.31368 0.0831525 5.08745
lowerneck -6.69151 -2.02466 -0.468928
upperneck 16.3283 -1.78288 -5.65002
head 5.99209 -1.31365 -1.83416
rclavicle 9.93923e-015 -1.74931e-014
rhumerus 23.4457 24.7629 -62.6142
rradius 68.3735
rwrist -1.44833
rhand -20.8074 -44.38
rfingers 7.12502
rthumb 5.56033 -74.287
lclavicle 9.93923e-015 -1.74931e-014
lhumerus 27.6598 -27.3538 70.3868
lradius 63.3342
lwrist 8.61319
lhand -18.9849 -23.2937
lfingers 7.12502
lthumb 7.31968 6.55969
rfemur 12.336 -2.3854 13.7761
rtibia 13.3353
rfoot -20.0109 -6.03825
rtoes -11.4461
lfemur -2.43244 4.58672 -15.8954
ltibia 35.6175
lfoot -24.4229 7.47004
ltoes -55.2489
836
root -0.307674 18.2341 5.72991 -8.944 0.877149 -1.74221
lowerback 9.46562 -0.0508299 1.39929
upperback 3.79835 0.176631 5.57101
thorax -1.37165 0.065357 4.99291
lowerneck -6.80461 -2.02212 -0.402621
upperneck 16.2962 -1.77183 -5.74681
head 6.00007 -1.31265 -1.87615
rclavicle 2.25621e-014 -9.54166e-015
rhumerus 22.8494 24.5079 -63.1965
rradius 68.4366
rwrist -2.03896
rhand -20.7595 -44.9472
rfingers 7.12502
rthumb 5.6066 -74.853
lclavicle 2.25621e-014 -9.54166e-015
lhumerus 27.9192 -27.5511 69.815
lradius 63.3355
lwrist 8.46169
lhand -19.011 -23.431
lfingers 7.12502
lthumb 7.2945 6.42331
rfemur 12.2744 -2.3784 13.7982
rtibia 13.2743
rfoot -19.9855 -6.03521
rtoes -11.2443
lfemur -2.51023 4.52524 -15.9092
ltibia 35.6161
lfoot -24.4793 7.56289
ltoes -55.2397
